<svg width="14" height="13" viewBox="0 0 14 13" fill="none" xmlns="http://www.w3.org/2000/svg">
<g filter="url(#filter0_ii_4513_1240)">
<path d="M6.41127 0.475995C6.59767 0.0880799 7.15233 0.0880799 7.33873 0.475995L8.94241 3.814C9.0175 3.97017 9.16672 4.07799 9.33911 4.10056L13.0289 4.58364C13.458 4.63981 13.6296 5.16643 13.3153 5.46267L10.6178 8.00598C10.4912 8.12535 10.434 8.30038 10.4658 8.471L11.1433 12.1047C11.2221 12.5278 10.7732 12.853 10.3932 12.6481L7.1197 10.8836C6.96702 10.8013 6.78298 10.8013 6.6303 10.8836L3.35683 12.6481C2.97674 12.853 2.52782 12.5278 2.6067 12.1047L3.28416 8.471C3.31598 8.30038 3.25877 8.12535 3.1322 8.00598L0.434623 5.46267C0.120416 5.16643 0.292009 4.63981 0.721036 4.58364L4.41088 4.10056C4.58328 4.07799 4.73253 3.97017 4.80757 3.814L6.41127 0.475995Z" fill="#F3B105"/>
<path d="M6.41127 0.475995C6.59767 0.0880799 7.15233 0.0880799 7.33873 0.475995L8.94241 3.814C9.0175 3.97017 9.16672 4.07799 9.33911 4.10056L13.0289 4.58364C13.458 4.63981 13.6296 5.16643 13.3153 5.46267L10.6178 8.00598C10.4912 8.12535 10.434 8.30038 10.4658 8.471L11.1433 12.1047C11.2221 12.5278 10.7732 12.853 10.3932 12.6481L7.1197 10.8836C6.96702 10.8013 6.78298 10.8013 6.6303 10.8836L3.35683 12.6481C2.97674 12.853 2.52782 12.5278 2.6067 12.1047L3.28416 8.471C3.31598 8.30038 3.25877 8.12535 3.1322 8.00598L0.434623 5.46267C0.120416 5.16643 0.292009 4.63981 0.721036 4.58364L4.41088 4.10056C4.58328 4.07799 4.73253 3.97017 4.80757 3.814L6.41127 0.475995Z" fill="url(#paint0_linear_4513_1240)" fill-opacity="0.55"/>
</g>
<path d="M9.28502 4.5137L9.28501 4.5137C8.97359 4.47292 8.70318 4.27802 8.56689 3.99454L8.56683 3.99443L6.96318 0.656458C6.96317 0.656449 6.96317 0.656439 6.96316 0.65643C6.92808 0.583481 6.82189 0.58349 6.78682 0.656458L5.18314 3.99443L4.80757 3.814L5.18314 3.99444C5.04688 4.27804 4.77637 4.47293 4.46498 4.5137L4.46497 4.5137L0.775127 4.99678C0.691733 5.0077 0.663829 5.10611 0.720454 5.1595L0.434623 5.46267L0.720455 5.1595L3.41804 7.70281L3.41809 7.70286C3.64742 7.91915 3.75164 8.237 3.69377 8.54737C3.69377 8.54737 3.69377 8.54738 3.69377 8.54738L3.01631 12.1811C3.00241 12.2556 3.08337 12.3222 3.15912 12.2814L3.35683 12.6481L3.15912 12.2814L6.43259 10.5168L6.43266 10.5168C6.70872 10.368 7.04128 10.368 7.31734 10.5168L7.3174 10.5168L10.5909 12.2814L10.5909 12.2814C10.6666 12.3222 10.7476 12.2557 10.7337 12.1811L9.28502 4.5137ZM9.28502 4.5137L12.9749 4.99678C13.0583 5.0077 13.0862 5.10609 13.0295 5.15948L13.0295 5.1595L10.3319 7.70281L10.3319 7.70288C10.1026 7.91916 9.99836 8.23699 10.0562 8.54736L9.28502 4.5137Z" stroke="url(#paint1_linear_4513_1240)" stroke-opacity="0.7" stroke-width="0.833333"/>
<defs>
<filter id="filter0_ii_4513_1240" x="0.273438" y="-0.648275" width="13.2031" height="14.1925" filterUnits="userSpaceOnUse" color-interpolation-filters="sRGB">
<feFlood flood-opacity="0" result="BackgroundImageFix"/>
<feBlend mode="normal" in="SourceGraphic" in2="BackgroundImageFix" result="shape"/>
<feColorMatrix in="SourceAlpha" type="matrix" values="0 0 0 0 0 0 0 0 0 0 0 0 0 0 0 0 0 0 127 0" result="hardAlpha"/>
<feMorphology radius="1.57165" operator="erode" in="SourceAlpha" result="effect1_innerShadow_4513_1240"/>
<feOffset dy="-0.833333"/>
<feComposite in2="hardAlpha" operator="arithmetic" k2="-1" k3="1"/>
<feColorMatrix type="matrix" values="0 0 0 0 0.0705882 0 0 0 0 0.137255 0 0 0 0 0.270588 0 0 0 0.06 0"/>
<feBlend mode="normal" in2="shape" result="effect1_innerShadow_4513_1240"/>
<feColorMatrix in="SourceAlpha" type="matrix" values="0 0 0 0 0 0 0 0 0 0 0 0 0 0 0 0 0 0 127 0" result="hardAlpha"/>
<feMorphology radius="3.1433" operator="erode" in="SourceAlpha" result="effect2_innerShadow_4513_1240"/>
<feOffset dy="0.833333"/>
<feComposite in2="hardAlpha" operator="arithmetic" k2="-1" k3="1"/>
<feColorMatrix type="matrix" values="0 0 0 0 1 0 0 0 0 1 0 0 0 0 1 0 0 0 0.12 0"/>
<feBlend mode="normal" in2="effect1_innerShadow_4513_1240" result="effect2_innerShadow_4513_1240"/>
</filter>
<linearGradient id="paint0_linear_4513_1240" x1="6.875" y1="-2.01546" x2="6.875" y2="23.7813" gradientUnits="userSpaceOnUse">
<stop stop-color="#FED866" stop-opacity="0"/>
<stop offset="0.666695" stop-color="#FED866"/>
</linearGradient>
<linearGradient id="paint1_linear_4513_1240" x1="6.875" y1="0.185059" x2="6.875" y2="12.7111" gradientUnits="userSpaceOnUse">
<stop stop-color="#EC9C00"/>
<stop offset="1" stop-color="#EC9C00" stop-opacity="0"/>
</linearGradient>
</defs>
</svg>
