<svg width="157" height="22" viewBox="0 0 157 22" fill="none" xmlns="http://www.w3.org/2000/svg">
<path fill-rule="evenodd" clip-rule="evenodd" d="M35.0223 3.5065L34.394 2.6751C34.3119 2.56609 34.1978 2.486 34.0679 2.4462C33.7651 2.35411 32.9562 2.23342 32.5464 2.21298C32.4743 2.20851 32.4043 2.1868 32.3421 2.14962C32.28 2.11245 32.2276 2.06089 32.189 1.9992C31.7976 1.39015 30.4196 -0.0602833 30.0985 0.0021846C29.7361 0.0727531 29.8648 0.254831 29.9316 0.60631C30.1231 1.61669 31.0002 2.95095 31.0002 2.95095C31.0002 2.95095 30.433 4.64971 29.4814 4.8349C27.8261 5.15723 26.2681 1.95299 21.7365 1.92168C10.2608 1.92168 11.9938 18.0003 5.49427 18.0003C4.99779 18.0003 4.93674 18.2742 4.93674 18.3319C4.93674 18.4489 4.87842 18.7214 5.82623 18.7214C13.0705 18.7214 14.1105 9.40091 16.1172 9.40091C16.8518 9.40091 16.786 11.6237 16.786 12.3515C16.786 16.2399 15.203 17.1057 15.203 18.2241C15.203 18.6491 15.4515 18.9459 16.0354 19.2225C17.5322 19.9309 21.7508 21.3181 22.8593 21.3181C23.9679 21.3181 21.0517 19.0533 20.247 19.0533C19.4423 19.0533 17.6654 18.8015 17.6654 17.6456C17.6654 16.3544 23.0905 13.9757 23.0905 11.1852C24.4717 11.1852 25.6599 11.0225 26.6918 10.7443C26.8972 11.2488 27.2506 12.1461 27.3185 12.505C27.3736 12.7958 27.2049 13.2732 26.7516 13.3613C26.2983 13.4495 25.4424 14.0697 25.4944 14.3452C25.5463 14.6206 26.2234 14.855 26.6766 14.7668C27.1299 14.6786 28.2309 14.3265 28.3774 13.282C28.4478 12.78 28.7787 10.7854 29.1642 9.71895C31.0253 8.62715 32.1625 7.10544 33.0649 5.79315C33.1007 5.74086 33.1466 5.6965 33.2 5.66285C33.2534 5.62919 33.313 5.60694 33.3751 5.59749C33.7261 5.49818 34.0888 5.44753 34.4534 5.44691C35.0534 5.44691 35.5931 5.68426 35.9428 5.68426C36.3431 5.68426 36.5691 5.19123 36.5691 4.96314C36.5694 4.30026 35.0223 3.5065 35.0223 3.5065Z" fill="#2F76FF"/>
<path d="M45.5302 19.4937L45.4163 17.2876C45.7477 17.3429 46.1102 17.3705 46.5038 17.3705C47.2702 17.3705 47.7881 17.1737 48.0574 16.7802C48.3267 16.3866 48.4613 15.7375 48.4613 14.833V0.954358H51.2784V14.6466C51.2784 15.5166 51.199 16.2484 51.0402 16.8423C50.8884 17.443 50.6259 17.9505 50.2531 18.3648C49.8871 18.786 49.3969 19.0932 48.7824 19.2866C48.1747 19.4799 47.4187 19.5766 46.5141 19.5766C46.1344 19.5766 45.8064 19.549 45.5302 19.4937ZM62.4435 15.2783C61.539 16.0172 60.3479 16.3866 58.8703 16.3866C57.3926 16.3866 56.2016 16.0172 55.297 15.2783C54.3994 14.5395 53.9506 13.4555 53.9506 12.0262V4.7865H56.6745V11.9227C56.6745 12.7719 56.8506 13.3864 57.2028 13.7662C57.5618 14.146 58.128 14.3358 58.9013 14.3358C59.6609 14.3358 60.2133 14.1494 60.5585 13.7766C60.9106 13.3968 61.0867 12.7788 61.0867 11.9227V4.7865H63.8002V12.0262C63.8002 13.4486 63.3481 14.5327 62.4435 15.2783ZM66.286 16.1691V4.7865H68.4817L68.7924 6.23652C68.9306 6.06391 69.0617 5.91197 69.1861 5.7808C69.3172 5.64268 69.4933 5.49083 69.7143 5.32508C69.9421 5.15248 70.1804 5.01092 70.4289 4.90042C70.6844 4.79001 70.9951 4.69676 71.3611 4.62084C71.7339 4.54483 72.131 4.50691 72.5521 4.50691C73.4567 4.50691 74.1782 4.68981 74.7167 5.05579C75.2623 5.42177 75.6454 5.84986 75.8664 6.34006C76.2738 5.75318 76.802 5.30089 77.451 4.9833C78.1001 4.6657 78.8217 4.50691 79.6157 4.50691C80.9207 4.50691 81.877 4.87632 82.4847 5.61505C83.0992 6.35388 83.4065 7.4483 83.4065 8.89832V16.1691H80.6825V9.7062C80.6825 8.59453 80.5582 7.79352 80.3096 7.30331C80.068 6.80616 79.6019 6.55763 78.9114 6.55763C77.855 6.55763 77.0954 7.03402 76.6329 7.98689C76.4395 8.40811 76.3083 8.91556 76.2393 9.5094V16.1691H73.5257V9.58189C73.5257 8.56691 73.391 7.81085 73.1217 7.31369C72.8525 6.81654 72.3657 6.56792 71.6614 6.56792C71.0883 6.56792 70.5946 6.71299 70.1804 7.00296C69.766 7.29293 69.4518 7.67272 69.2378 8.14225C69.079 8.83964 68.9996 9.67514 68.9996 10.6487V16.1691H66.286ZM86.0891 20.9023V4.7865H88.4192L88.7092 6.3815C89.0823 5.7808 89.5756 5.31822 90.1908 4.99368C90.8119 4.66227 91.5025 4.49653 92.2617 4.49653C93.1942 4.49653 94.0118 4.75544 94.7162 5.27327C95.4274 5.79118 95.9661 6.49895 96.3324 7.39657C96.6979 8.28724 96.8815 9.29535 96.8815 10.4208C96.8815 12.1816 96.4534 13.6178 95.5972 14.7295C94.7479 15.8342 93.5949 16.3866 92.1373 16.3866C91.4193 16.3866 90.7673 16.245 90.1805 15.9619C89.5997 15.6719 89.1132 15.2818 88.7195 14.7916C88.7752 15.7859 88.8027 16.3451 88.8027 16.4694V20.7677L86.0891 20.9023ZM91.5574 14.3152C92.3655 14.3152 93.0004 13.9768 93.4636 13.3001C93.9329 12.6235 94.168 11.6568 94.168 10.4002C94.168 9.12274 93.9329 8.16293 93.4636 7.52079C92.9935 6.87865 92.3415 6.55763 91.5059 6.55763C89.7103 6.55763 88.8027 7.77979 88.7821 10.224C88.7821 11.6326 89.0129 12.6684 89.4761 13.3312C89.9454 13.9872 90.6394 14.3152 91.5574 14.3152ZM102.733 16.3762C101.055 16.3762 99.7117 16.0897 98.7037 15.5166L98.9833 13.4762C99.4397 13.7248 100.02 13.9492 100.724 14.1494C101.428 14.3427 102.07 14.4394 102.65 14.4394C103.251 14.4394 103.717 14.329 104.048 14.108C104.386 13.8801 104.56 13.5487 104.567 13.1137C104.567 12.7202 104.407 12.4094 104.09 12.1816C103.779 11.9537 103.182 11.6706 102.298 11.3323C101.995 11.2218 101.797 11.1493 101.708 11.1148C100.658 10.7074 99.9022 10.2551 99.4398 9.75793C98.9765 9.25392 98.7457 8.57378 98.7457 7.71759C98.7457 6.68185 99.118 5.88787 99.8644 5.33547C100.617 4.78306 101.663 4.50691 103.003 4.50691C104.452 4.50691 105.726 4.77963 106.824 5.32508L106.151 7.19976C105.067 6.69566 104.035 6.4437 103.054 6.4437C102.508 6.4437 102.08 6.53687 101.77 6.72329C101.466 6.90285 101.314 7.179 101.314 7.55193C101.314 7.90401 101.463 8.18026 101.76 8.38049C102.056 8.57377 102.636 8.82926 103.499 9.14694C103.527 9.1538 103.617 9.18485 103.769 9.2401C103.921 9.29535 104.038 9.34022 104.12 9.37479C105.164 9.7545 105.93 10.2102 106.42 10.7419C106.91 11.2666 107.156 11.9537 107.156 12.803C107.149 13.9422 106.762 14.8226 105.996 15.4441C105.229 16.0655 104.142 16.3762 102.733 16.3762ZM109.31 16.1691V0.591862L112.023 0.415787V3.69902C112.023 3.85782 112.013 4.29972 111.993 5.02473C111.972 5.7428 111.962 6.10877 111.962 6.12259C112.866 5.04541 114.081 4.50691 115.607 4.50691C116.877 4.50691 117.861 4.8728 118.559 5.60476C119.263 6.32977 119.615 7.4483 119.615 8.96043V16.1691H116.901V9.26086C116.901 8.32867 116.753 7.6451 116.456 7.21014C116.159 6.7751 115.655 6.55763 114.944 6.55763C114.336 6.55763 113.798 6.71299 113.328 7.02364C112.859 7.32751 112.506 7.72102 112.272 8.20436C112.107 8.83964 112.023 9.66819 112.023 10.6901V16.1691H109.31ZM125.301 16.3866C124.245 16.3866 123.389 16.0966 122.733 15.5166C122.084 14.9297 121.759 14.0873 121.759 12.9894C121.759 11.8087 122.146 10.9352 122.919 10.369C123.693 9.79594 124.859 9.43347 126.42 9.28154C126.634 9.25392 126.865 9.22629 127.114 9.19867C127.363 9.17104 127.642 9.14342 127.953 9.11579C128.263 9.08817 128.509 9.06406 128.688 9.0433V8.4426C128.688 7.75217 128.529 7.2515 128.212 6.94085C127.894 6.62317 127.411 6.46437 126.761 6.46437C125.836 6.46437 124.694 6.72329 123.333 7.2412C123.326 7.22044 123.213 6.90628 122.992 6.29863C122.77 5.69106 122.657 5.38033 122.65 5.36652C123.989 4.79344 125.439 4.50691 127 4.50691C128.533 4.50691 129.648 4.84174 130.346 5.51151C131.043 6.1744 131.391 7.2515 131.391 8.74295V16.1691H129.382C129.375 16.1415 129.299 15.9102 129.154 15.4751C129.009 15.0401 128.937 14.8088 128.937 14.7812C128.371 15.3336 127.815 15.741 127.269 16.0033C126.73 16.2588 126.075 16.3866 125.301 16.3866ZM126.036 14.4602C126.665 14.4602 127.211 14.3117 127.673 14.0147C128.142 13.711 128.478 13.345 128.678 12.9169V10.7212C128.657 10.7212 128.474 10.735 128.129 10.7626C127.791 10.7902 127.607 10.8041 127.58 10.8041C126.482 10.9007 125.678 11.1078 125.166 11.4255C124.656 11.7431 124.4 12.2541 124.4 12.9583C124.4 13.4417 124.542 13.8145 124.825 14.0769C125.108 14.3324 125.512 14.4602 126.036 14.4602ZM134.136 16.1691V4.7865H136.414L136.767 6.52649C137.512 5.33203 138.593 4.73476 140.009 4.73476C140.306 4.73476 140.547 4.74858 140.734 4.7762L140.692 7.0444C140.416 7.00296 140.129 6.98229 139.832 6.98229C138.831 6.98229 138.082 7.24806 137.584 7.77979C137.095 8.31143 136.849 9.05025 136.849 9.99617V16.1691H134.136ZM147.548 16.3866C145.719 16.3866 144.293 15.8618 143.271 14.8122C142.256 13.7558 141.749 12.2989 141.749 10.4415C141.749 8.63245 142.228 7.19281 143.188 6.12259C144.148 5.05236 145.457 4.51377 147.113 4.50691C148.681 4.50691 149.896 4.99711 150.759 5.9776C151.629 6.95809 152.064 8.25961 152.064 9.88224C152.064 9.9996 152.061 10.1895 152.054 10.4519C152.054 10.7143 152.054 10.9076 152.054 11.0319H144.483C144.51 12.0953 144.8 12.9204 145.353 13.5073C145.912 14.0873 146.678 14.3773 147.652 14.3773C148.895 14.3773 150.089 14.0527 151.235 13.4037L151.619 15.3302C150.48 16.0344 149.123 16.3866 147.548 16.3866ZM144.534 9.32298H149.506C149.506 8.39773 149.296 7.68654 148.874 7.18938C148.453 6.69223 147.87 6.4437 147.123 6.4437C146.427 6.4437 145.836 6.68537 145.353 7.16871C144.877 7.65205 144.604 8.37011 144.534 9.32298Z" fill="white"/>
</svg>
